<svg version="1.1" id="Layer_1" xmlns="http://www.w3.org/2000/svg" xmlns:xlink="http://www.w3.org/1999/xlink" x="0px" y="0px"
	 width="100%" viewBox="0 0 608 592" enable-background="new 0 0 608 592" xml:space="preserve">
<path fill="#000000" opacity="1.000000" stroke="none" 
	d="
M190.352051,57.306503 
	C213.434921,46.500374 237.166534,38.740757 261.979156,35.100342 
	C283.840881,31.892866 305.734955,30.461105 328.077637,32.337704 
	C381.542053,36.828255 429.451141,55.018509 472.064850,87.168564 
	C513.286133,118.268082 543.759705,157.755875 562.650818,206.025497 
	C576.450134,241.284912 582.385193,277.875305 580.008545,315.525360 
	C576.266907,374.797394 555.367920,427.420898 516.873657,472.957489 
	C485.100220,510.543640 445.576080,536.778320 399.547302,553.301331 
	C373.402802,562.686523 346.256348,567.369934 318.408539,568.497742 
	C286.453064,569.791748 255.185501,566.150330 224.836014,556.300964 
	C158.827682,534.879517 106.412506,495.858429 70.718109,435.588470 
	C57.576370,413.398712 48.262665,389.713562 41.392178,364.866272 
	C33.561680,336.547089 31.868099,307.655762 34.106487,278.782806 
	C38.057827,227.814346 56.286709,181.879105 87.066154,140.959183 
	C114.451096,104.552109 148.826309,76.828522 190.352051,57.306503 
M477.731567,106.771378 
	C440.613770,75.446159 398.323730,55.435814 350.200012,47.753788 
	C328.471832,44.285305 306.637421,44.073154 284.909546,45.687733 
	C255.011658,47.909412 226.209061,55.287331 198.750397,67.740906 
	C176.928223,77.638100 156.315567,89.594521 137.964859,104.872833 
	C113.708305,125.068214 93.645470,148.998856 78.458809,176.872818 
	C66.278175,199.229446 57.274200,222.799728 52.476357,247.737106 
	C47.999237,271.007477 46.853981,294.520416 48.901329,318.313171 
	C50.914852,341.712952 55.673996,364.369232 63.881798,386.229065 
	C77.837082,423.396179 98.789017,455.980835 127.975182,483.289459 
	C154.963623,508.541718 186.322372,523.544617 223.225159,526.359436 
	C227.994781,526.723328 233.281937,526.983765 238.211411,524.453247 
	C235.551559,521.222534 231.463623,525.450928 229.443878,521.869690 
	C231.245300,517.765747 235.286636,523.037537 237.470795,519.223938 
	C231.174133,516.839661 233.165482,510.828583 231.833817,506.170074 
	C231.335785,504.427826 231.754883,502.382538 233.989090,501.687012 
	C236.174896,501.006592 237.848297,502.042816 239.322342,503.570587 
	C241.076904,505.389008 239.943436,506.889221 238.872391,508.440582 
	C238.252686,509.338043 236.837173,509.777222 237.304932,511.710541 
	C244.428833,515.774780 251.570206,520.360718 255.365891,528.500916 
	C255.941895,529.736267 257.305756,529.499207 258.429718,529.761963 
	C263.859680,531.031433 266.693848,527.581360 269.616577,523.557861 
	C261.533234,522.480225 268.412506,518.183411 268.262573,515.596802 
	C268.010590,511.250183 272.734131,514.279907 274.926392,513.104797 
	C275.315491,511.123688 272.535217,510.615295 273.245087,508.028229 
	C279.782562,505.236572 286.668549,502.099609 293.720978,499.396942 
	C296.020782,498.515594 299.102814,498.856964 300.561127,501.087250 
	C302.373444,503.858978 299.247284,505.030273 297.737671,506.592651 
	C296.332703,508.046753 295.818878,509.720856 296.404388,511.628510 
	C297.109802,513.926636 299.108063,513.747559 300.939667,513.784302 
	C305.838135,513.882751 310.440094,513.298096 314.698792,510.303345 
	C316.820862,508.811005 319.713562,506.757965 322.456390,508.312195 
	C326.502655,510.605072 330.894745,510.673218 335.043610,510.418976 
	C341.317230,510.034424 347.589691,508.786835 353.723969,507.324310 
	C356.865936,506.575226 361.456085,506.779083 362.769104,503.886108 
	C365.218872,498.488373 369.840485,499.646790 373.734985,498.942169 
	C379.228180,497.948273 384.963043,498.130219 388.997406,493.199677 
	C390.609711,491.229218 393.077515,491.224915 394.855286,492.762512 
	C397.475433,495.028717 399.532379,493.978241 402.061554,492.704956 
	C409.648254,488.885498 417.482422,485.628662 425.465759,482.691437 
	C432.075592,480.259583 437.849365,479.980469 441.515320,487.006714 
	C443.174957,486.515900 444.623383,485.546661 445.667877,485.872467 
	C450.142944,487.268341 452.759033,484.811157 455.635437,482.054840 
	C458.396576,479.409088 461.085693,475.204224 465.854614,479.388916 
	C466.258331,479.743225 467.440308,479.222534 468.258057,479.091492 
	C487.865112,475.949524 502.869385,464.442017 514.504089,449.778900 
	C536.900452,421.553070 551.379761,389.331818 559.376465,353.919800 
	C563.977173,333.546265 565.449341,313.123077 565.540833,292.519928 
	C565.620483,274.574402 563.422058,256.794464 559.045410,239.251541 
	C555.084656,223.375473 549.879517,207.985687 543.189575,193.125763 
	C528.092773,159.592453 505.421875,131.697754 477.731567,106.771378 
z"/>
<path fill="#000000" opacity="1.000000" stroke="none" 
	d="
M380.981995,114.978165 
	C384.481567,115.976135 387.976318,115.974342 391.084106,113.987099 
	C394.351471,111.897804 396.589264,115.422859 399.565063,115.259087 
	C399.239716,112.043137 396.206238,110.275108 395.571289,106.959991 
	C397.668701,105.750710 399.359985,104.259193 398.322968,101.221527 
	C397.723480,99.465546 399.219910,98.158287 400.675049,97.197708 
	C402.250580,96.157639 404.491272,95.828728 404.040710,92.968040 
	C403.574585,90.008484 401.587646,88.740585 399.178406,87.850723 
	C397.316376,87.162979 395.329315,86.815926 393.461426,86.141251 
	C392.155243,85.669441 391.260437,84.691681 391.313721,82.849571 
	C394.030945,80.642036 396.835144,81.571907 399.492065,83.003738 
	C406.235199,86.637650 413.509613,88.531425 420.946442,90.055656 
	C424.187653,90.719963 425.721283,93.988136 428.361145,95.707344 
	C430.794769,97.292221 432.594971,99.108673 434.783844,95.461525 
	C436.125031,93.226807 438.365936,94.044975 440.163788,94.917107 
	C445.546509,97.528236 450.759674,100.432213 455.334412,104.369385 
	C458.189453,106.826515 460.789185,110.029472 465.366547,108.116066 
	C465.957855,107.868889 467.016052,108.279335 467.663116,108.691269 
	C488.778412,122.133682 505.362396,140.050507 519.400879,160.601120 
	C531.495728,178.306503 540.963318,197.302795 548.603882,217.273926 
	C549.047852,218.434357 549.333374,219.484375 548.399658,220.510330 
	C547.242554,221.099213 546.538025,220.413986 545.847412,219.631348 
	C545.327332,219.042007 544.770630,218.485031 543.805359,217.464371 
	C543.299438,219.995834 544.154480,221.569565 545.073792,223.021378 
	C551.798096,233.639893 556.489929,245.116486 559.665283,257.242706 
	C560.404419,260.065460 560.647644,262.854431 558.713379,265.355164 
	C556.940491,267.647400 556.310486,269.814362 558.105652,272.590332 
	C559.020752,274.005371 559.093872,276.146149 557.232361,277.475372 
	C554.431274,277.658997 554.761963,274.706909 552.971802,273.322540 
	C551.799072,277.166840 551.926331,280.594116 553.761292,283.989105 
	C555.341553,286.912750 556.963257,289.832214 558.276184,292.878662 
	C561.903015,301.294006 560.519897,302.278595 555.081604,311.845795 
	C550.319763,309.680237 550.034424,303.920288 546.085693,300.373108 
	C543.751099,310.920990 551.701660,318.388824 552.130371,327.697662 
	C556.124512,327.338318 555.259705,323.924622 556.615356,322.161560 
	C558.545654,319.651123 559.051880,314.192078 562.448975,315.153351 
	C565.969055,316.149384 562.958679,320.693970 562.829468,323.576294 
	C562.592346,328.867462 561.064514,334.056580 561.077454,339.434906 
	C561.082642,341.585388 560.507935,344.182861 557.865723,344.377045 
	C555.414246,344.557251 554.955994,341.953094 554.308899,340.156769 
	C553.322693,337.419037 552.621704,334.578613 551.527710,331.856384 
	C552.900085,340.472229 555.344849,348.871246 555.773682,357.631958 
	C555.861755,359.431488 556.243958,361.105499 554.302673,361.816956 
	C552.300415,362.550781 551.388916,360.871887 550.411926,359.482391 
	C546.709534,354.216919 546.496643,347.888336 545.150818,341.937469 
	C544.033508,336.997253 541.983887,332.530090 539.585510,328.155701 
	C538.745728,326.624054 536.789490,324.993073 538.512268,323.304199 
	C540.432068,321.422211 541.631958,324.064087 543.119324,324.789307 
	C543.691956,325.068481 544.191650,325.497375 545.522217,326.397858 
	C542.325439,313.849274 539.332764,302.101715 536.337585,290.344574 
	C534.876160,288.922516 533.106323,291.281403 531.146851,289.429291 
	C530.508850,286.057739 530.792847,281.808624 528.106689,278.268921 
	C525.259705,274.517273 523.557678,274.401611 521.376343,278.392944 
	C519.779114,281.315338 518.282104,284.307281 516.478516,287.099030 
	C512.774963,292.831543 510.279266,298.811523 511.282043,305.847443 
	C511.749237,309.125458 510.378571,312.058807 509.046997,314.940216 
	C508.545227,316.026001 507.774506,317.035278 506.432251,316.908295 
	C505.130829,316.785278 504.446259,315.746399 504.094086,314.578339 
	C500.597992,302.982727 494.677032,292.229340 492.136017,279.860901 
	C486.973785,280.752838 484.028839,277.467407 481.198578,273.811188 
	C477.555847,269.105408 473.110718,266.040192 466.689941,266.969055 
	C464.248779,267.322174 461.846771,266.306396 459.455231,265.551971 
	C459.364471,266.762146 460.183197,266.854828 460.667664,267.234467 
	C469.769562,274.366852 468.717712,285.662079 459.007935,292.099762 
	C451.230652,297.256195 443.382141,302.078613 434.679596,305.475128 
	C433.679321,305.865540 432.471313,306.352600 432.271301,307.811737 
	C433.198639,309.315460 434.616516,308.764252 435.810822,308.440491 
	C439.183472,307.526306 442.505096,306.425934 445.864532,305.460510 
	C450.507355,304.126282 452.467377,305.658569 451.223816,310.361023 
	C449.313782,317.583710 447.078400,324.768005 442.215363,330.742310 
	C436.644806,337.585815 430.944397,344.332367 425.604614,351.352386 
	C420.831329,357.627625 418.828644,364.376068 422.152618,372.338074 
	C424.642334,378.301636 423.289948,384.851807 422.959167,391.136444 
	C422.820312,393.774323 420.629181,395.505707 418.499237,396.876312 
	C413.143341,400.322784 409.268890,404.475708 410.205597,411.535034 
	C410.544800,414.091431 409.243011,416.188873 406.745789,417.010468 
	C403.588593,418.049194 402.871796,420.199036 403.037903,423.192108 
	C403.108185,424.458435 402.931000,426.093262 402.183563,426.994324 
	C395.880615,434.592957 390.623047,443.266998 381.065338,447.584076 
	C378.388855,448.792999 375.813019,449.739716 372.913391,448.832031 
	C370.662689,448.127502 368.586334,448.927368 366.571533,449.587128 
	C363.014984,450.751678 360.342468,449.513916 359.293579,446.292786 
	C355.883545,435.820587 348.401825,427.213470 345.965240,416.285828 
	C344.524933,409.826447 342.682007,403.462708 338.706879,397.880554 
	C336.589966,394.907837 336.553864,391.326172 337.862915,387.803925 
	C342.633423,374.968414 341.413391,363.354523 330.957336,353.537964 
	C327.995300,350.757050 328.714783,347.131256 329.398865,343.660065 
	C329.782990,341.711334 330.566681,339.813232 330.732788,337.855194 
	C331.139771,333.057373 328.843964,330.990967 324.143433,331.975494 
	C321.720612,332.482910 319.442200,333.007904 317.929565,330.500031 
	C315.237732,326.036987 311.132874,326.346100 307.483490,328.128662 
	C300.797546,331.394409 293.428406,329.994293 286.510651,331.885193 
	C283.121979,332.811462 279.371552,329.512878 276.576569,326.848755 
	C269.452515,320.058228 265.262634,311.493286 261.388397,302.547607 
	C258.978302,296.982635 259.063049,292.212891 261.290100,286.892822 
	C262.016113,285.158539 261.888489,282.916351 261.663940,280.962433 
	C260.933319,274.604980 263.278595,269.195587 266.542542,264.051422 
	C268.235931,261.382538 270.218231,258.896240 270.881866,255.687439 
	C271.009705,255.069351 271.368378,254.198410 271.849945,253.999496 
	C278.351410,251.314423 280.078613,245.530716 281.935425,239.534409 
	C282.536377,237.593674 284.991486,236.107773 286.815643,234.694122 
	C289.324768,232.749634 290.759125,230.342758 291.228973,227.516510 
	C290.263214,225.954895 288.946381,226.421219 287.862488,226.204681 
	C283.418213,225.316818 280.557648,223.543289 281.613739,218.100174 
	C282.398529,214.055222 282.607605,209.819260 282.447144,205.692719 
	C282.289581,201.640610 284.425537,200.734253 287.649384,200.830048 
	C290.137878,200.904007 292.624847,201.214462 295.099762,201.522141 
	C299.716461,202.096039 300.321930,201.131409 298.842133,196.597229 
	C297.902069,193.716721 295.571136,192.143066 293.573730,190.023239 
	C295.430847,185.503464 300.010132,185.849930 303.588470,184.356827 
	C299.763275,180.515259 296.099854,186.883698 292.812134,184.552475 
	C292.033325,183.159851 292.345703,182.267517 292.939087,181.754929 
	C299.430206,176.147766 297.926392,170.243515 293.509644,164.375793 
	C291.962158,162.319931 291.364197,160.234741 292.021393,157.857635 
	C292.541138,155.977692 292.983124,153.634186 295.808899,154.244431 
	C298.257843,154.773300 299.617401,156.259872 298.798523,158.980286 
	C298.610199,159.605865 298.397430,160.224106 298.532501,159.807434 
	C301.227936,167.219757 309.651276,169.450821 310.471191,177.347427 
	C315.335205,178.857864 317.632019,175.167099 319.666565,172.215698 
	C321.479614,169.585602 323.133392,168.909027 326.627014,170.892639 
	C324.273956,165.048691 327.805176,160.038956 326.237488,154.917984 
	C325.701843,155.009644 325.338501,154.979248 325.082062,155.130325 
	C322.995880,156.359283 325.052917,161.495941 322.249542,160.248764 
	C319.551575,159.048477 315.770630,157.551987 314.612823,153.506317 
	C311.718414,143.392410 312.583191,140.680695 320.504211,133.730621 
	C324.862793,129.906296 328.225403,125.462303 329.885132,119.415779 
	C331.304321,114.245514 335.779236,110.626625 341.177521,108.942879 
	C346.533905,107.272186 351.833466,106.562691 356.857239,110.219673 
	C360.301483,112.726883 364.825073,112.477951 368.556488,114.394455 
	C369.807983,115.037247 371.099579,114.643776 372.148132,113.493774 
	C375.366943,109.963646 378.198120,110.833435 380.522156,114.787949 
	C378.612915,115.749680 376.904297,116.299866 374.883942,116.950432 
	C375.901123,119.425255 376.953735,121.594749 374.368134,123.773262 
	C372.355377,125.469154 369.971832,125.482574 367.604919,126.056686 
	C368.825623,130.696182 372.320984,130.184250 375.661621,130.782669 
	C375.256256,127.930084 374.287018,125.327309 377.007416,123.608246 
	C380.213165,121.582504 380.893372,118.423721 380.981995,114.978165 
M385.247589,246.294632 
	C396.456146,247.860397 402.145813,241.743683 398.561432,231.680481 
	C398.027191,232.174042 397.457947,232.534317 397.111755,233.045593 
	C394.008545,237.629028 393.937347,237.694992 390.738953,233.145889 
	C389.439087,231.297104 388.008453,231.046661 386.020966,231.592590 
	C378.877228,233.554825 377.465790,232.809952 375.014648,225.426102 
	C373.507416,220.885788 369.676086,219.547806 365.977966,217.317032 
	C365.549194,219.180206 366.477081,219.576263 366.867188,220.263672 
	C368.664581,223.431000 367.646301,228.541473 364.777496,229.955643 
	C360.696198,231.967499 359.096649,229.100418 357.664795,226.049210 
	C357.315216,225.304291 356.934418,224.500534 356.353210,223.951080 
	C354.293518,222.003998 354.087463,217.815628 349.630554,218.249100 
	C349.499725,219.259659 349.359039,220.058014 349.298096,220.862411 
	C348.737762,228.259949 347.321014,229.606033 340.076569,229.408752 
	C338.553864,229.367264 337.563599,229.685059 337.151031,231.355774 
	C335.885284,236.481140 337.910431,240.369949 343.156281,241.515793 
	C347.459961,242.455811 351.440430,243.928436 355.178070,246.194534 
	C358.098755,247.965302 360.714447,248.278992 362.792969,244.811356 
	C363.764069,243.191269 365.388733,241.844284 367.383911,242.516251 
	C372.941101,244.387939 378.830719,244.489822 385.247589,246.294632 
M322.448975,206.286514 
	C318.298126,203.928482 317.349396,208.822098 314.665100,209.896881 
	C310.055237,211.742645 306.514893,215.029236 307.835266,220.955063 
	C308.163147,222.426361 307.451508,223.435837 306.051056,224.112427 
	C301.684509,226.222031 301.116241,226.781113 298.320068,231.384415 
	C304.576660,228.593979 310.470032,226.669617 316.676880,228.008026 
	C319.873322,228.697281 322.409515,228.110016 325.159241,226.538651 
	C328.834930,224.438110 332.746277,222.451096 337.191467,226.732880 
	C337.179016,222.178589 339.642822,220.170746 344.348724,217.908493 
	C336.575134,215.077164 334.131226,206.130539 325.116760,207.893295 
	C324.507507,208.012421 323.704987,207.143280 322.448975,206.286514 
M339.568542,142.235321 
	C340.150269,143.415543 340.444275,144.932434 341.363403,145.717789 
	C345.386932,149.155716 344.433441,152.212967 341.033020,155.308868 
	C339.563751,156.646561 338.943451,158.241302 339.640137,160.249802 
	C340.943939,164.008469 338.677887,165.810410 335.707245,167.138321 
	C334.524078,167.667206 332.926666,167.463593 331.949707,169.194809 
	C336.520660,168.723526 340.218903,166.746353 344.425659,166.322723 
	C346.630981,166.100616 351.037628,164.525406 350.637360,161.205261 
	C350.172028,157.344818 352.083374,155.923935 355.016235,154.471970 
	C352.926483,152.888855 353.471130,149.894089 350.938202,149.232529 
	C347.987976,148.461960 347.814819,145.877441 346.662537,143.682205 
	C342.889618,136.494278 343.804779,130.764877 350.810272,126.295982 
	C350.966217,126.196518 350.857086,125.681496 350.886658,125.027199 
	C346.816986,123.007774 345.176270,126.201996 344.002136,128.836929 
	C342.187958,132.908112 341.024628,137.269287 339.568542,142.235321 
M380.515839,214.027847 
	C385.049072,211.139542 389.972382,211.521545 394.920502,212.381332 
	C398.864075,213.066528 402.697205,213.288300 406.611572,210.805756 
	C404.065826,206.190475 399.985901,204.170334 395.873413,202.013229 
	C392.451019,200.218063 391.147339,203.317886 388.993500,204.424255 
	C386.673492,205.615967 385.495056,204.644119 384.119202,202.738846 
	C381.573395,199.213470 379.877869,199.790451 377.757660,203.554367 
	C375.303253,207.911514 378.968506,210.510910 380.515839,214.027847 
M435.507568,206.321182 
	C435.483673,205.105148 436.490784,204.713165 437.249786,204.102325 
	C439.643372,202.175858 439.848358,199.574310 437.979553,197.588562 
	C435.798828,195.271317 433.818024,197.034378 432.242432,199.019302 
	C431.421204,200.053909 430.468964,200.985718 429.663147,202.031204 
	C427.317932,205.074112 427.003815,208.041595 430.325104,210.615768 
	C433.127716,212.787903 436.145020,215.471481 436.768646,218.574188 
	C437.916016,224.282867 441.129242,223.730743 445.264038,223.021133 
	C444.039948,216.331207 439.747803,211.724915 435.507568,206.321182 
M410.440094,270.007477 
	C405.275055,265.532471 405.755463,256.720917 397.895844,254.233887 
	C407.580566,269.883118 414.076935,287.391357 426.597809,301.386108 
	C423.048767,290.262451 417.004028,280.399780 410.440094,270.007477 
M439.894073,253.720428 
	C438.896240,252.861679 437.947296,251.841644 436.043671,252.852234 
	C437.197693,255.604263 437.268158,258.969055 441.596497,259.236603 
	C443.385132,259.347137 444.695068,260.784760 444.964294,262.499573 
	C445.359497,265.016479 446.537628,266.592682 449.076416,266.591553 
	C451.861572,266.590332 453.406708,264.771271 454.799561,261.552429 
	C448.680420,261.151337 443.152679,260.053589 439.894073,253.720428 
M345.641571,208.741379 
	C346.658386,208.666931 347.928009,209.486771 348.636627,207.849731 
	C346.639282,205.592499 343.955200,204.881500 340.844299,203.540833 
	C341.818359,206.318848 343.251312,207.589905 345.641571,208.741379 
z"/>
<path fill="#000000" opacity="1.000000" stroke="none" 
	d="
M176.803329,92.543320 
	C179.679810,90.889580 182.068436,89.152946 183.998795,87.103638 
	C183.860840,85.082863 182.322617,85.505882 181.360672,85.081429 
	C179.039047,84.057045 178.799408,82.194366 180.393707,80.725731 
	C183.541382,77.826180 187.191528,75.648972 191.112640,75.133163 
	C193.146622,76.674026 191.328583,78.101387 192.121063,79.360535 
	C193.592850,79.812241 195.423813,80.166290 195.449585,77.973122 
	C195.545349,69.818703 201.940598,67.500694 207.681198,66.399780 
	C215.768829,64.848747 223.858902,62.705524 232.237869,62.693085 
	C235.850998,62.687721 238.936340,63.078156 239.994385,67.811775 
	C246.809967,63.904377 254.370911,65.836693 261.088165,63.079224 
	C262.647522,62.439091 265.032867,62.350155 266.452057,63.106831 
	C270.506836,65.268715 274.859589,65.565834 279.172607,66.513000 
	C282.493195,67.242218 285.356140,68.287178 288.627258,66.684311 
	C289.888916,66.066093 291.365295,66.393288 291.940887,67.951889 
	C292.439545,69.302048 291.493652,70.198387 290.448669,70.772125 
	C289.291321,71.407562 288.025848,71.853287 286.790466,72.338264 
	C280.582184,74.775475 276.502838,81.426552 276.749725,88.151726 
	C276.894745,92.102242 273.330566,94.482704 271.967010,97.841751 
	C271.671753,98.569122 270.625854,99.032234 270.430603,99.753708 
	C267.038574,112.286057 255.324982,112.610229 245.989227,115.921776 
	C241.819412,117.400879 238.495697,119.002281 236.005096,122.619774 
	C233.839417,125.765366 231.608536,128.942307 228.944656,131.651230 
	C224.696243,135.971420 219.648117,134.674438 217.712769,128.997177 
	C216.525467,125.514290 215.905869,121.908638 215.806549,118.208748 
	C215.716522,114.854622 216.538162,111.921295 219.324371,109.827339 
	C220.583664,108.880943 221.911285,107.703926 221.608917,106.192017 
	C220.587250,101.083237 222.453003,96.495049 223.627731,91.737785 
	C224.154495,89.604485 223.355316,87.748886 220.905380,87.151192 
	C217.682098,86.364807 215.397766,85.106277 216.284729,81.001289 
	C216.555817,79.746628 215.164017,78.334076 213.570267,77.389580 
	C210.492050,78.625580 209.515671,82.974297 205.421875,83.115227 
	C201.861374,83.237808 200.616745,88.389587 195.167267,87.044106 
	C199.866837,91.777496 198.086655,97.518913 201.081589,101.729568 
	C201.925217,102.915665 202.150375,104.527000 202.923172,105.780571 
	C207.227707,112.763184 207.076553,115.032127 199.863312,118.966064 
	C197.065582,120.491890 195.028809,122.230812 193.111435,124.530334 
	C190.335419,127.859558 187.306396,129.690018 183.689011,125.484756 
	C183.407532,125.157524 182.804657,125.091370 182.337387,124.949059 
	C182.202957,124.908119 182.020355,125.025444 181.582977,125.147415 
	C181.108414,129.212585 183.080887,132.782837 184.477753,136.395401 
	C185.387024,138.747025 187.168076,137.466141 188.581039,136.542236 
	C190.653320,135.187241 191.599579,132.557831 194.315659,131.469681 
	C197.085373,133.947845 197.434708,137.023880 196.589371,140.382065 
	C196.022034,142.635941 195.506149,144.943542 194.578400,147.056351 
	C193.204315,150.185608 193.207962,152.696121 196.215622,154.937180 
	C198.637039,156.741409 198.512039,159.187439 197.025360,161.620483 
	C196.075241,163.175385 194.936203,164.637711 194.731735,166.846313 
	C200.768982,169.862808 197.115204,175.404022 198.785004,180.256012 
	C194.143509,180.256012 190.352005,180.471863 186.597107,180.193695 
	C183.030045,179.929443 182.050842,177.601501 184.081467,174.669968 
	C185.655258,172.397949 188.071579,170.683502 188.811142,167.330215 
	C184.284195,168.161621 180.038651,167.947449 175.588791,166.341965 
	C175.152603,168.060196 176.229492,170.212952 173.380737,170.809586 
	C175.671448,171.797745 178.131195,171.722626 178.034698,174.502914 
	C177.879669,178.970581 173.271561,178.456512 171.023087,180.579758 
	C171.288513,180.903824 171.486099,181.333237 171.654465,181.322067 
	C173.847870,181.176651 176.850876,179.542664 177.700195,182.660263 
	C178.606735,185.987915 175.314117,187.034073 172.913589,188.010086 
	C170.171951,189.124771 167.277542,189.863724 164.609863,190.714783 
	C162.314011,190.256226 163.929321,187.893875 162.290329,186.864380 
	C155.994202,189.317612 148.321075,190.141052 146.977020,199.138306 
	C139.089355,200.251892 132.411377,203.143845 129.446472,211.306458 
	C127.335526,217.118103 123.419174,221.189484 117.820259,223.685226 
	C114.437553,225.193069 112.750267,227.926285 112.286476,231.438721 
	C111.741966,235.562454 110.138779,239.470490 110.042274,243.700867 
	C110.000031,245.552917 109.029160,247.561523 106.889748,247.619232 
	C104.311256,247.688812 104.560104,245.249176 104.272949,243.540283 
	C104.053589,242.234772 104.089569,240.883865 104.044250,239.552063 
	C103.929626,236.183823 103.608307,233.191986 98.896873,235.416122 
	C98.123375,235.781265 96.907082,235.574005 96.018303,235.270935 
	C89.494438,233.046356 84.027046,234.553268 80.836960,240.157272 
	C76.600113,247.600098 76.575890,256.101135 75.525475,264.314697 
	C75.415764,265.172546 75.816704,265.981293 76.654884,266.373474 
	C77.726433,266.874786 78.696968,266.438446 79.293053,265.590515 
	C80.821205,263.416626 82.296143,261.197510 83.652931,258.913635 
	C84.640007,257.252075 85.595238,255.551224 87.861877,256.479279 
	C90.112785,257.400879 90.539742,259.497253 89.891281,261.524414 
	C88.983719,264.361542 87.773460,267.116486 86.512985,269.822876 
	C84.391838,274.377228 84.827896,275.287170 89.707718,275.836151 
	C94.363853,276.359924 96.071472,278.765198 94.917480,283.340668 
	C94.594452,284.621429 93.866638,285.797180 93.510231,287.072968 
	C91.821274,293.118866 96.214073,297.758392 102.323273,296.430664 
	C102.486053,296.395294 102.773552,296.382355 102.791092,296.308594 
	C104.150734,290.590698 110.742905,291.339661 113.699623,287.399200 
	C117.630646,282.160309 119.672127,282.361237 123.428986,287.528412 
	C127.495979,293.122131 134.229034,293.571533 138.941788,288.505371 
	C139.651810,287.742126 140.240128,286.909515 141.386597,287.228882 
	C142.689240,287.591766 143.338745,288.681519 143.186890,289.901917 
	C142.455643,295.778656 145.087128,298.874573 150.776764,300.096191 
	C153.190887,300.614563 154.443665,303.036133 155.154724,305.247223 
	C156.793091,310.341736 160.851059,312.537933 165.428619,312.452881 
	C174.029343,312.293152 176.663742,318.083893 179.342453,324.414520 
	C180.652390,327.510315 181.127655,330.749329 183.577576,333.670349 
	C187.591995,338.456696 193.138611,339.139648 198.214661,340.484833 
	C201.636765,341.391693 204.758453,341.793823 207.386581,344.488708 
	C208.835205,345.974121 211.093399,346.661987 212.968552,347.740814 
	C222.352402,353.139648 223.727173,362.249847 216.392731,370.378571 
	C212.320160,374.892212 211.409485,380.555878 211.407608,386.211395 
	C211.405746,391.795074 210.262024,397.123230 209.088348,402.459290 
	C208.241364,406.310089 206.331406,409.589874 201.981461,410.667389 
	C195.068298,412.379883 191.494263,416.627655 192.282059,423.976898 
	C192.812073,428.921265 191.586319,433.157623 187.747131,436.564819 
	C186.949081,437.273041 186.445068,438.536469 186.221252,439.629181 
	C185.240356,444.417999 182.555344,446.957764 177.428848,446.335907 
	C177.044601,449.755402 181.614197,451.691620 179.330566,455.294006 
	C177.439896,458.276550 174.437195,458.395752 171.233871,458.921417 
	C172.108231,462.067444 176.819504,464.689209 174.468216,467.578064 
	C171.760712,470.904663 176.612061,474.015411 172.910599,476.688934 
	C176.784912,478.568726 177.728973,481.402618 178.481293,485.115601 
	C179.599091,490.632294 184.238037,493.764771 189.414886,495.831451 
	C191.957016,496.846283 195.068192,496.874878 196.787842,499.885925 
	C194.229340,504.621674 190.031250,502.838867 186.801804,501.706818 
	C177.330475,498.386749 168.641205,493.493805 161.330307,486.483398 
	C159.923859,485.134735 158.975815,483.290192 157.894333,481.623779 
	C154.714081,476.723694 155.000046,469.928162 149.512680,466.284485 
	C148.553864,456.151428 139.774994,449.646576 137.781937,439.506134 
	C135.898178,429.921783 131.007431,420.884979 129.454880,410.934174 
	C128.033356,401.823120 124.851250,393.945068 115.908554,388.946777 
	C108.351273,384.722778 106.524384,375.941223 103.065636,368.621460 
	C101.717041,365.767456 100.763733,362.699341 99.190475,359.983612 
	C92.797791,348.948578 92.108208,337.202118 95.036476,325.184265 
	C95.890671,321.678558 99.249214,319.244995 100.835136,315.679657 
	C102.738861,311.399872 102.893646,307.503448 102.478302,303.346893 
	C101.935272,303.078644 101.614624,302.769379 101.363586,302.818207 
	C94.558601,304.141388 88.696754,300.972443 85.980339,292.932983 
	C82.513573,282.672760 74.249870,277.833618 65.703529,273.283936 
	C59.541290,270.003479 57.057194,262.564667 60.875374,256.533112 
	C61.214325,255.997665 61.430897,255.384750 61.899860,254.395218 
	C57.144829,255.358322 56.950287,253.169769 57.193111,249.479782 
	C59.551323,213.644394 76.264618,183.636795 95.865723,154.985733 
	C109.732170,134.717056 126.021950,116.442612 145.277298,100.992950 
	C147.773148,98.990387 150.219482,96.917221 153.976425,98.785194 
	C154.764603,95.253433 156.317108,92.958519 159.843491,92.529213 
	C161.375015,92.342758 162.295532,90.934372 163.283585,89.787521 
	C169.165268,82.960564 171.676941,82.644791 179.727783,87.703636 
	C179.413193,91.689445 174.313095,90.648041 173.158691,94.064262 
	C174.643341,94.383385 175.430588,93.101509 176.803329,92.543320 
M176.172134,113.417053 
	C176.497803,114.314552 177.344269,115.806961 176.199905,116.018066 
	C172.017593,116.789597 169.580368,120.326080 165.991180,121.964554 
	C164.416321,122.683495 162.740372,123.447525 161.367599,122.007347 
	C159.251953,119.787872 157.437103,120.886864 155.132996,121.728645 
	C147.822113,124.399628 143.536758,129.710480 140.519897,137.626862 
	C145.262421,135.824936 147.044617,139.531342 149.621124,141.620392 
	C152.006790,143.554688 152.136658,145.995331 149.406250,147.808350 
	C145.288971,150.542297 145.486725,154.530823 145.293579,158.869781 
	C149.861710,158.456055 150.389938,154.628494 151.922607,152.239716 
	C156.168228,145.622635 164.349075,141.484756 164.597809,132.268768 
	C164.626678,131.198624 166.105759,130.162689 166.923965,129.119873 
	C168.459839,127.162384 170.694656,125.427399 171.388336,123.208885 
	C172.522354,119.582153 174.392242,118.541092 177.967102,120.031487 
	C178.755142,113.269279 186.659866,112.302269 188.164597,105.866661 
	C185.482162,107.775368 183.258926,109.240303 180.057541,108.513237 
	C176.878311,107.791206 175.462463,109.623924 176.172134,113.417053 
M176.299683,100.315865 
	C172.551132,99.299225 168.667465,96.795975 165.387558,101.010574 
	C169.166092,100.516373 173.129211,102.896675 176.299683,100.315865 
M161.619598,95.814690 
	C159.367447,97.036240 158.211411,98.872002 158.053253,101.752380 
	C161.801483,101.117783 163.448181,99.578094 161.619598,95.814690 
z"/>
<path fill="#000000" opacity="1.000000" stroke="none" 
	d="
M440.925110,387.985901 
	C443.019012,384.961517 444.851074,382.188751 446.711761,379.435333 
	C447.462677,378.324036 448.268433,377.140625 449.849243,377.405945 
	C451.444336,377.673553 451.908295,379.061005 452.082092,380.373291 
	C452.428375,382.987762 453.067017,385.564209 452.447998,388.279785 
	C449.777313,399.995483 445.952972,411.287048 440.534424,422.031464 
	C439.019836,425.034698 437.164337,427.606293 433.392700,427.111755 
	C429.507080,426.602325 428.735870,423.256073 427.967896,420.171356 
	C427.653809,418.909698 427.400238,417.427063 427.758667,416.237701 
	C429.858582,409.269562 432.338379,402.433716 432.031647,394.937836 
	C431.948181,392.898407 433.852936,391.524872 435.841125,390.723694 
	C437.522278,390.046173 439.376495,389.678802 440.925110,387.985901 
z"/>
<path fill="#000000" opacity="1.000000" stroke="none" 
	d="
M271.313782,130.549286 
	C262.466217,132.482941 258.108612,129.660080 258.913452,122.933212 
	C259.079987,121.541069 259.283295,119.834152 260.883545,120.074188 
	C264.048767,120.548950 266.935150,118.846153 270.161499,119.511040 
	C273.273438,120.152351 276.260712,120.772034 276.831909,124.276833 
	C277.428284,127.936356 274.733917,129.478683 271.313782,130.549286 
z"/>
<path fill="#000000" opacity="1.000000" stroke="none" 
	d="
M110.711166,263.864929 
	C108.779678,263.863617 107.243942,263.461761 106.624100,261.920990 
	C105.372993,258.811127 103.709351,256.376404 99.994537,256.040344 
	C98.916260,255.942780 98.317352,254.997849 98.327370,253.884277 
	C98.339317,252.555054 99.168388,251.787735 100.338318,251.335419 
	C104.586212,249.693146 120.408478,258.876862 121.090645,263.422424 
	C121.151009,263.824677 120.729408,264.299225 120.440155,264.944244 
	C117.258797,265.147614 114.581284,260.259277 110.711166,263.864929 
z"/>
<path fill="#000000" opacity="1.000000" stroke="none" 
	d="
M379.758484,93.663170 
	C378.182465,100.759598 382.544495,104.485001 386.987610,108.073807 
	C388.408447,109.221451 390.693420,110.090858 389.293091,112.187592 
	C387.946991,114.203125 386.537079,112.095535 385.121216,111.420967 
	C379.407745,108.698891 374.336517,105.549026 373.279358,98.506607 
	C372.817627,95.430756 373.247101,92.740318 375.855194,90.970886 
	C378.373413,89.262436 380.388214,89.298843 379.758484,93.663170 
z"/>
<path fill="#000000" opacity="1.000000" stroke="none" 
	d="
M284.636597,182.313812 
	C279.541840,181.354706 280.620972,178.286057 282.203278,175.566162 
	C284.304565,171.954102 283.715759,165.357727 290.798584,166.784271 
	C293.647949,167.358139 294.836060,175.198700 292.509888,177.490631 
	C290.364075,179.604828 287.832245,181.204803 284.636597,182.313812 
z"/>
<path fill="#000000" opacity="1.000000" stroke="none" 
	d="
M123.290649,273.091797 
	C122.542564,272.938721 122.200859,272.903900 121.904266,272.769531 
	C120.110771,271.956909 116.817085,272.694092 117.088501,269.664368 
	C117.343391,266.819122 120.197304,266.774567 122.564812,266.637817 
	C125.578972,266.463745 128.186203,263.663300 131.542984,265.398285 
	C133.641815,266.483093 136.169708,267.436371 135.879730,270.139954 
	C135.585052,272.887146 132.918045,272.165588 131.042282,272.197144 
	C128.554474,272.238983 126.269135,273.702301 123.290649,273.091797 
z"/>
<path fill="#000000" opacity="1.000000" stroke="none" 
	d="
M381.680298,82.428696 
	C377.569977,81.507317 373.902374,80.597542 372.104279,76.556076 
	C375.813568,75.321991 384.850739,78.497437 387.333405,81.812309 
	C385.874512,84.206757 383.886017,82.802544 381.680298,82.428696 
z"/>
<path fill="#000000" opacity="1.000000" stroke="none" 
	d="
M510.733704,318.928162 
	C511.177856,316.267487 509.938232,312.417389 513.403503,312.658142 
	C516.548096,312.876678 516.166138,316.618317 516.191162,319.244659 
	C516.210999,321.324554 515.896545,323.692505 513.415710,323.779114 
	C510.675995,323.874725 510.831604,321.341217 510.733704,318.928162 
z"/>
<path fill="#000000" opacity="1.000000" stroke="none" 
	d="
M102.914963,266.822205 
	C104.483093,265.168091 105.920189,264.661194 107.247993,266.549530 
	C108.125832,267.797974 108.815712,269.192413 107.980782,270.733765 
	C107.368523,271.864044 106.348373,272.500366 105.066666,271.947449 
	C102.952225,271.035278 102.050110,269.435547 102.914963,266.822205 
z"/>
<path fill="#000000" opacity="1.000000" stroke="none" 
	d="
M328.783142,209.529816 
	C333.496185,212.006943 332.604218,216.084305 331.873474,219.675781 
	C331.355530,222.221252 329.131805,223.015335 327.038574,220.831161 
	C324.794525,218.489624 325.711395,211.748032 328.783142,209.529816 
z"/>
</svg>